<?xml version="1.0" standalone="no"?>
<!DOCTYPE svg PUBLIC "-//W3C//DTD SVG 20010904//EN"
 "http://www.w3.org/TR/2001/REC-SVG-20010904/DTD/svg10.dtd">
<svg version="1.0" xmlns="http://www.w3.org/2000/svg"
 width="100%" height="100%" viewBox="-12.90 -18.40 1152.80 1152.80"
 preserveAspectRatio="xMidYMid meet">

<g transform="translate(0.000000,1129.000000) scale(0.100000,-0.100000)"
fill="#B22222" stroke="none">
<path d="M5194 10935 c22 -84 51 -212 91 -405 89 -438 65 -517 -165 -528 -171
-7 -329 37 -675 193 -82 37 -170 76 -194 87 -25 11 -60 22 -80 26 -31 5 -34 3
-27 -14 60 -153 81 -385 40 -441 -29 -40 -93 -68 -209 -92 -174 -36 -303 -49
-765 -76 -505 -29 -616 -35 -730 -45 -238 -21 -406 -45 -415 -60 -3 -4 7 -11
23 -15 53 -13 248 -116 327 -173 117 -84 150 -160 109 -247 -31 -66 -95 -121
-764 -655 -452 -361 -700 -566 -732 -605 -16 -19 -15 -20 15 -22 83 -6 246
-38 278 -54 82 -41 66 -121 -61 -319 -193 -302 -327 -566 -443 -876 -42 -111
-91 -293 -112 -419 -13 -77 -22 -141 -20 -143 2 -2 43 14 92 35 118 53 153 66
158 62 2 -2 -3 -47 -11 -99 -65 -436 -70 -920 -14 -1357 63 -488 197 -954 406
-1404 59 -129 86 -183 171 -339 57 -105 170 -284 256 -406 486 -691 1100
-1217 1852 -1589 698 -344 1469 -512 2255 -492 318 9 548 34 840 91 270 54
663 170 836 247 22 10 63 27 90 37 375 149 861 442 1209 731 228 190 557 519
682 683 15 21 67 88 114 150 375 494 661 1083 819 1693 146 558 190 1124 135
1735 -96 1074 -492 2157 -1071 2926 -124 165 -209 262 -363 414 -360 358 -741
583 -1181 699 -323 85 -591 61 -851 -75 -82 -43 -210 -162 -258 -241 -68 -109
-96 -251 -72 -362 16 -77 101 -239 114 -220 2 2 11 22 21 45 38 87 181 203
324 261 147 60 348 72 515 29 176 -45 372 -166 511 -317 31 -33 55 -63 52 -66
-2 -3 -29 4 -60 16 -141 52 -344 68 -457 35 -240 -70 -424 -337 -369 -535 17
-62 30 -64 96 -20 121 81 274 115 411 92 130 -21 268 -95 364 -195 81 -83 175
-260 211 -399 32 -118 31 -327 -1 -446 -109 -408 -366 -669 -764 -775 -332
-89 -679 -63 -942 69 -239 120 -407 320 -514 611 -40 110 -64 226 -48 236 21
13 141 23 267 22 138 -2 239 -23 333 -71 63 -32 155 -124 181 -181 10 -23 26
-42 34 -42 23 0 434 166 574 233 l127 60 11 52 c6 29 12 65 13 81 2 26 -1 28
-43 31 -99 8 -232 54 -327 114 -138 86 -232 193 -437 499 -87 129 -221 327
-298 440 -77 113 -164 241 -194 285 -30 44 -91 132 -134 195 -44 63 -118 171
-165 240 -47 69 -116 169 -153 222 -37 54 -105 153 -151 220 -46 68 -141 203
-210 301 -69 98 -133 189 -141 202 -19 29 -32 45 -164 220 -122 162 -180 230
-172 200z m876 -2170 c36 -47 79 -103 95 -124 17 -21 68 -87 114 -147 125
-163 141 -182 207 -264 33 -41 68 -87 77 -101 l17 -26 -61 -36 -61 -37 -27 21
c-14 11 -65 58 -112 102 -47 45 -110 105 -140 132 -30 28 -120 112 -200 187
-80 76 -149 134 -153 130 -4 -4 -6 -2 -4 4 2 7 -19 31 -45 54 -27 24 -45 46
-40 50 9 9 255 139 263 140 3 0 35 -38 70 -85z m-1740 -611 c233 -59 383 -200
460 -434 41 -123 52 -279 26 -380 -33 -127 -114 -223 -213 -251 -24 -6 -43
-17 -43 -24 0 -31 44 -125 83 -177 115 -153 284 -228 513 -228 l96 0 -6 28
c-4 15 -9 65 -13 112 -16 234 129 456 405 619 29 17 58 31 65 31 8 0 20 -35
30 -87 33 -160 113 -359 195 -487 248 -384 634 -616 1152 -692 172 -25 492
-15 651 19 218 48 432 134 605 245 68 43 92 53 171 67 79 15 104 16 179 5 116
-17 221 -69 302 -150 32 -33 62 -60 65 -60 10 0 74 101 98 155 17 38 23 69 23
130 1 71 -3 86 -29 133 -39 71 -113 137 -213 190 -45 24 -82 47 -82 52 0 5 12
31 26 60 84 167 139 433 152 736 l7 157 95 -159 c343 -574 568 -1220 631
-1814 17 -161 15 -509 -4 -645 -23 -168 -38 -245 -47 -245 -4 0 -36 37 -71 82
-152 196 -369 386 -598 523 -244 146 -505 238 -828 292 -152 25 -547 25 -718
0 -346 -52 -794 -172 -1111 -297 -40 -17 -107 -43 -147 -59 -220 -87 -692
-325 -681 -343 4 -6 3 -8 -3 -5 -6 4 -70 -23 -143 -59 -620 -307 -1246 -365
-1817 -170 -292 99 -542 290 -734 558 -216 301 -310 630 -296 1038 14 422 168
764 478 1066 120 117 144 137 259 217 214 147 428 231 695 271 59 9 271 -4
335 -20z m3875 -3779 c157 -18 220 -30 305 -57 202 -64 344 -188 445 -387 32
-65 34 -60 -79 -211 -131 -175 -315 -367 -461 -483 -49 -39 -92 -75 -95 -78
-3 -4 -57 -41 -120 -83 -387 -258 -824 -398 -1245 -400 -229 0 -360 26 -491
99 -84 47 -138 96 -181 163 -18 28 -36 52 -38 52 -8 0 -57 -82 -91 -152 -57
-115 -79 -201 -79 -308 1 -275 186 -475 505 -545 103 -22 385 -31 551 -16 531
48 1015 257 1362 588 32 31 60 54 62 51 10 -10 -191 -224 -295 -314 -442 -382
-1038 -667 -1665 -798 -305 -63 -559 -88 -895 -88 -885 2 -1632 215 -2245 640
-70 49 -160 117 -175 132 -3 3 -41 35 -86 72 -181 150 -451 456 -595 678 -189
288 -346 613 -445 918 -42 132 -114 415 -114 450 0 20 15 2 70 -82 39 -59 98
-144 132 -189 100 -132 347 -370 483 -467 330 -233 678 -373 1085 -437 146
-23 624 -26 765 -5 657 99 1379 371 1990 752 378 236 667 366 1018 460 227 60
388 72 622 45z"/>
</g>
</svg>
